<?xml version="1.0" standalone="no"?>
<!DOCTYPE svg PUBLIC "-//W3C//DTD SVG 20010904//EN"
 "http://www.w3.org/TR/2001/REC-SVG-20010904/DTD/svg10.dtd">
<svg version="1.0" xmlns="http://www.w3.org/2000/svg"
 width="708.000000pt" height="765.000000pt" viewBox="0 0 708.000000 765.000000"
 preserveAspectRatio="xMidYMid meet">

<g transform="translate(0.000000,765.000000) scale(0.100000,-0.100000)"
fill="#000000" stroke="none">
<path d="M1866 7399 c-2 -8 -7 -48 -10 -89 -3 -41 -17 -221 -31 -400 -13 -179
-29 -376 -34 -438 -6 -62 -8 -118 -6 -125 3 -6 14 -174 25 -372 11 -198 25
-427 31 -510 l10 -149 43 -66 c24 -36 138 -209 252 -385 196 -301 454 -697
459 -703 1 -1 55 23 121 54 106 50 459 213 539 249 199 90 225 104 225 125 0
12 -18 119 -40 238 -35 192 -79 456 -155 933 l-23 147 -128 158 c-70 88 -158
195 -194 239 -36 44 -112 136 -169 205 -134 164 -128 157 -266 289 -66 63
-174 167 -240 231 -266 256 -405 382 -409 369z"/>
<path d="M4633 7358 c-34 -37 -409 -491 -666 -807 l-168 -206 -74 -230 c-70
-217 -199 -629 -232 -740 -14 -49 -13 -61 41 -380 69 -405 62 -375 87 -375 11
0 116 16 234 35 l214 36 122 -61 c67 -34 125 -58 129 -53 4 4 35 80 70 168
115 297 181 460 205 506 37 73 42 199 68 1982 1 86 2 157 1 157 0 0 -14 -15
-31 -32z"/>
<path d="M3830 4530 c-209 -34 -225 -38 -360 -100 -138 -64 -508 -231 -635
-287 -55 -25 -104 -48 -108 -52 -4 -5 16 -18 45 -31 29 -12 145 -64 258 -115
113 -51 322 -145 465 -210 143 -64 293 -132 333 -151 41 -19 82 -34 92 -34 9
0 101 27 203 60 101 33 191 60 199 60 10 0 20 -58 43 -241 l29 -240 111 -78
c60 -43 250 -174 420 -291 171 -117 366 -253 434 -302 l125 -90 18 24 c29 37
168 245 173 260 3 8 -64 155 -150 326 -85 172 -155 314 -155 316 0 2 -43 93
-96 202 -53 110 -136 281 -184 380 l-87 181 -149 73 c-427 208 -788 370 -821
369 -16 -1 -107 -14 -203 -29z"/>
<path d="M2591 3978 c-102 -261 -321 -834 -321 -840 0 -7 1266 -640 1976 -986
l391 -191 371 122 371 122 22 63 c12 36 17 68 13 72 -5 5 -110 78 -234 163
-124 85 -260 179 -303 208 -116 80 -323 225 -398 279 -55 40 -98 58 -255 110
l-189 62 -63 129 c-34 71 -67 129 -72 129 -5 0 -38 14 -72 31 -35 17 -88 41
-119 54 -31 13 -202 90 -380 170 -178 81 -362 164 -409 185 -47 21 -136 61
-197 89 -62 28 -115 51 -118 51 -3 0 -9 -10 -14 -22z"/>
<path d="M1861 2705 l-345 -345 80 -82 c81 -84 542 -568 1305 -1368 507 -531
674 -702 661 -675 -74 153 -393 818 -417 870 -18 39 -63 133 -100 210 -37 77
-130 271 -205 430 -76 160 -177 371 -225 470 -94 194 -224 465 -332 692 -38
78 -70 142 -73 142 -3 1 -160 -154 -349 -344z"/>
<path d="M2402 2923 c2 -4 16 -33 30 -63 14 -30 56 -118 93 -195 167 -347 334
-696 422 -880 53 -110 150 -315 217 -455 67 -140 210 -441 316 -668 107 -227
198 -411 202 -410 7 3 441 554 612 778 l73 95 58 190 c116 383 156 528 148
536 -9 8 -486 247 -748 374 -285 139 -824 404 -1134 559 -161 81 -291 143
-289 139z"/>
</g>
</svg>
