<?xml version="1.0" standalone="no"?>
<!DOCTYPE svg PUBLIC "-//W3C//DTD SVG 20010904//EN"
 "http://www.w3.org/TR/2001/REC-SVG-20010904/DTD/svg10.dtd">
<svg version="1.0" xmlns="http://www.w3.org/2000/svg"
 width="784.000000pt" height="784.000000pt" viewBox="0 0 784.000000 784.000000"
 preserveAspectRatio="xMidYMid meet">

<g transform="translate(0.000000,784.000000) scale(0.100000,-0.100000)"
fill="#000000" stroke="none">
<path d="M0 3920 l0 -3920 3920 0 3920 0 0 3920 0 3920 -3920 0 -3920 0 0
-3920z m2440 3464 c36 -33 166 -157 289 -275 123 -118 251 -239 284 -269 67
-61 254 -283 588 -699 l116 -144 68 -411 c37 -226 87 -523 112 -659 24 -137
43 -254 40 -260 -3 -7 -103 -57 -223 -111 -233 -106 -315 -144 -513 -237 -68
-33 -129 -59 -135 -59 -7 0 -78 100 -158 223 -196 296 -428 653 -526 807 l-80
125 -21 340 c-43 712 -44 716 -26 952 22 304 54 690 61 741 l6 43 27 -23 c14
-13 55 -50 91 -84z m2661 -669 c-6 -368 -16 -816 -22 -995 l-11 -324 -28 -56
c-15 -30 -83 -195 -150 -366 l-122 -312 -125 60 -124 59 -230 -37 c-126 -21
-232 -35 -235 -31 -3 3 -32 163 -65 356 l-59 351 60 187 c32 104 102 325 155
493 53 168 104 319 114 335 20 34 213 270 761 933 l85 102 4 -42 c1 -24 -2
-344 -8 -713z m-539 -2089 c29 -13 91 -42 138 -64 47 -22 175 -83 285 -135
110 -52 259 -123 332 -158 l132 -64 80 -165 c235 -484 311 -642 311 -646 0 -2
63 -130 140 -285 77 -155 140 -289 140 -298 0 -19 -170 -273 -186 -278 -5 -2
-59 31 -120 73 -60 43 -273 190 -474 329 -201 138 -394 272 -430 297 l-65 46
-29 244 c-17 133 -30 244 -31 245 -1 1 -91 -27 -201 -62 -109 -36 -205 -65
-213 -65 -8 0 -170 70 -360 156 -504 227 -750 338 -799 359 -38 16 -41 20 -25
29 27 15 276 129 786 358 62 28 119 45 200 58 61 10 150 25 197 33 119 21 133
20 192 -7z m-1237 -656 c138 -62 349 -157 470 -212 297 -135 323 -147 452
-204 l113 -49 62 -127 63 -127 187 -61 c161 -52 196 -67 255 -110 79 -58 334
-234 691 -479 138 -95 252 -176 252 -180 0 -4 -10 -33 -22 -64 l-23 -58 -360
-119 c-198 -66 -368 -120 -378 -120 -26 0 -520 242 -1825 892 -496 248 -542
273 -536 292 4 12 29 77 56 146 28 69 86 220 130 335 44 116 93 245 110 288
18 47 35 77 41 74 7 -3 125 -55 262 -117z m-527 -1112 c72 -150 170 -354 217
-453 167 -345 218 -452 355 -740 76 -159 195 -409 265 -555 203 -424 321 -671
344 -725 20 -47 12 -40 -166 140 -104 105 -235 240 -292 300 -113 119 -213
224 -391 410 -64 66 -183 192 -265 280 -83 88 -211 223 -286 300 -74 77 -187
194 -250 260 -62 66 -169 176 -236 245 l-123 125 343 343 c188 188 345 342
348 342 3 0 65 -123 137 -272z m1796 -702 c289 -142 437 -220 434 -228 -3 -7
-15 -44 -26 -83 -12 -38 -49 -162 -83 -275 -33 -113 -70 -236 -81 -275 -16
-57 -34 -90 -103 -180 -118 -156 -573 -736 -594 -758 -17 -17 -19 -15 -48 50
-50 111 -395 840 -688 1453 -376 785 -452 946 -500 1046 l-53 111 651 -322
c359 -177 849 -420 1091 -539z"/>
</g>
</svg>
